<mxfile host="app.diagrams.net" modified="2023-06-06T23:08:41.560Z" agent="Mozilla/5.0 (X11; Linux x86_64) AppleWebKit/537.36 (KHTML, like Gecko) Chrome/114.0.0.0 Safari/537.36" version="21.3.7" etag="3J8IiLJtw6QKHmBiY0EM" type="github">
  <diagram name="Seite-1" id="E2UBn6zYVWwho8owW5a1">
    <mxGraphModel>
      <root>
        <mxCell id="0" />
        <mxCell id="1" parent="0" />
      </root>
    </mxGraphModel>
  </diagram>
</mxfile>
